<svg xmlns="http://www.w3.org/2000/svg" width="44" height="39" viewBox="0 0 44 39">
    <g fill="none" fill-rule="evenodd">
        <path fill="#FFF" fill-rule="nonzero" stroke="#00D09C" stroke-width="1.591" d="M32.813 8.546c-9.929 0-11.609-3.852-11.624-3.888a.5.5 0 0 0-.456-.319.511.511 0 0 0-.467.31c-.012.04-1.728 3.897-11.62 3.897a.5.5 0 0 0-.495.504l2.143 17.26c1.426 6.046 9.732 9.179 10.234 9.405.067.03.13.04.202.04.065 0 .136-.01.199-.04.507-.226 8.006-2.61 10.236-9.405l2.143-17.26a.503.503 0 0 0-.495-.504z"/>
        <path fill="#00D09C" fill-rule="nonzero" d="M29.337 11.905c-7.03 0-8.218-2.726-8.229-2.752a.354.354 0 0 0-.323-.226.362.362 0 0 0-.33.22c-.01.028-1.224 2.758-8.227 2.758a.354.354 0 0 0-.35.358l1.516 12.22c1.01 4.28 6.89 6.497 7.246 6.658.047.02.092.028.143.028a.336.336 0 0 0 .14-.028c.36-.16 5.67-1.848 7.248-6.659l1.517-12.22a.356.356 0 0 0-.35-.357z"/>
        <path stroke="#FFF" stroke-linecap="round" stroke-linejoin="round" stroke-width="4.774" d="M36.09 5.039c5.961-1.344 6.721.447 2.28 5.37-6.663 7.385-21.493 19.868-30.294 24.342-8.801 4.475-5.1-2.492-2.116-5.577"/>
        <path stroke="#80868B" stroke-linecap="round" stroke-linejoin="round" stroke-width="1.591" d="M36.09 5.039c5.961-1.344 6.721.447 2.28 5.37-6.663 7.385-21.493 19.868-30.294 24.342-8.801 4.475-5.1-2.492-2.116-5.577"/>
        <path fill="#80868B" fill-rule="nonzero" d="M35.334 34.596a.697.697 0 0 1-.69-.704.697.697 0 0 0-.688-.704.697.697 0 0 0-.69.704.697.697 0 0 1-.688.704.697.697 0 0 0-.69.704c0 .39.31.704.69.704.38 0 .689.316.689.705 0 .388.308.704.689.704.38 0 .689-.316.689-.704 0-.389.309-.705.689-.705.38 0 .689-.315.689-.704a.697.697 0 0 0-.69-.704zM2.989 13.082a.747.747 0 0 1-.738-.753.51.51 0 0 0-.504-.516.51.51 0 0 0-.505.516c0 .415-.33.753-.737.753a.51.51 0 0 0-.505.516.51.51 0 0 0 .505.516c.406 0 .737.338.737.753a.51.51 0 0 0 .505.516.51.51 0 0 0 .504-.516c0-.415.331-.753.738-.753a.51.51 0 0 0 .505-.516.51.51 0 0 0-.505-.516zM31.429 1.855c-.36 0-.654-.3-.654-.668 0-.253-.2-.457-.448-.457a.453.453 0 0 0-.447.457.662.662 0 0 1-.655.668.453.453 0 0 0-.447.458c0 .252.2.457.447.457.361 0 .655.3.655.669 0 .252.2.457.447.457a.453.453 0 0 0 .448-.457c0-.369.293-.669.654-.669a.453.453 0 0 0 .447-.457c0-.253-.2-.458-.447-.458z"/>
    </g>
</svg>
